<svg xmlns="http://www.w3.org/2000/svg" xmlns:xlink="http://www.w3.org/1999/xlink" width="140" height="46" fill="none" xmlns:v="https://vecta.io/nano"><g fill="#fff"><path d="M38.889 37.127l-1.383 4.111h-.457l-1.201-3.504-1.207 3.504h-.45l-1.383-4.111h.444l1.188 3.536 1.227-3.536h.404l1.214 3.549 1.201-3.549h.404zm3.288 1.331c.228.228.346.555.346.985v1.794h-.418v-1.749c0-.32-.078-.568-.241-.737s-.392-.255-.685-.255c-.333 0-.594.098-.79.294s-.294.47-.294.822v1.618h-.418v-4.359h.418v1.807c.111-.183.268-.32.47-.418s.431-.15.685-.15c.392.013.698.124.927.346zm4.176 1.364H43.77c.026.32.15.581.372.776s.502.294.848.294c.189 0 .365-.033.529-.104a1.12 1.12 0 0 0 .418-.3l.235.268a1.38 1.38 0 0 1-.515.378c-.209.091-.431.131-.679.131-.32 0-.6-.065-.842-.202a1.48 1.48 0 0 1-.574-.561 1.6 1.6 0 0 1-.202-.809 1.65 1.65 0 0 1 .196-.809 1.39 1.39 0 0 1 .542-.555 1.54 1.54 0 0 1 .77-.202 1.46 1.46 0 0 1 .77.202 1.41 1.41 0 0 1 .535.555c.131.235.196.509.196.816l-.013.124zm-2.238-1.057c-.202.189-.313.437-.346.744h2.192a1.11 1.11 0 0 0-.346-.744 1.07 1.07 0 0 0-.757-.287 1.05 1.05 0 0 0-.744.287zm3.935-.483c.196-.104.431-.157.718-.157v.405l-.098-.007c-.326 0-.581.098-.763.3-.183.196-.274.476-.274.835v1.572h-.418v-3.086h.398v.607a.99.99 0 0 1 .437-.47zm4.131 1.54h-2.584c.026.32.15.581.372.776s.502.294.848.294c.189 0 .365-.033.529-.104a1.12 1.12 0 0 0 .418-.3l.235.268c-.137.163-.307.287-.515.378s-.431.131-.679.131c-.32 0-.6-.065-.842-.202a1.48 1.48 0 0 1-.574-.561 1.6 1.6 0 0 1-.202-.809 1.65 1.65 0 0 1 .196-.809c.13-.241.313-.424.542-.555a1.54 1.54 0 0 1 .77-.202 1.46 1.46 0 0 1 .77.202c.228.13.404.32.535.555s.196.509.196.816l-.013.124zm-2.238-1.057c-.202.189-.313.437-.346.744h2.192a1.11 1.11 0 0 0-.346-.744 1.07 1.07 0 0 0-.757-.287 1.05 1.05 0 0 0-.744.287zm8.155-1.638v4.111h-.431v-1.899h-2.571v1.899h-.437v-4.111h.437v1.834h2.571v-1.834h.431zm1.71 3.935a1.45 1.45 0 0 1-.561-.561 1.6 1.6 0 0 1-.202-.809c0-.3.065-.574.202-.809a1.43 1.43 0 0 1 .561-.555c.235-.13.509-.202.803-.202s.568.065.803.202c.241.13.424.32.561.555.137.242.202.509.202.809s-.065.574-.202.809a1.45 1.45 0 0 1-.561.561c-.241.137-.509.202-.803.202s-.561-.065-.803-.202zm1.396-.32a1.03 1.03 0 0 0 .411-.424c.098-.183.144-.392.144-.626s-.052-.444-.144-.626a1.03 1.03 0 0 0-.411-.424 1.19 1.19 0 0 0-.587-.15 1.17 1.17 0 0 0-.587.15 1.03 1.03 0 0 0-.411.424c-.098.183-.15.392-.15.626s.052.444.15.626a1.03 1.03 0 0 0 .411.424 1.19 1.19 0 0 0 .587.15c.215 0 .411-.046.587-.15zm1.939.411c-.228-.072-.411-.163-.535-.274l.189-.326a1.58 1.58 0 0 0 .489.248 1.92 1.92 0 0 0 .613.098c.281 0 .489-.046.626-.13a.42.42 0 0 0 .202-.372c0-.111-.039-.202-.111-.267s-.17-.111-.281-.15-.267-.065-.45-.098l-.607-.144c-.15-.046-.281-.13-.392-.248s-.163-.281-.163-.489a.76.76 0 0 1 .326-.633c.215-.163.516-.248.901-.248a2.37 2.37 0 0 1 .6.078 1.67 1.67 0 0 1 .496.209l-.183.333a1.55 1.55 0 0 0-.907-.268c-.267 0-.47.046-.6.144s-.202.215-.202.372a.36.36 0 0 0 .117.281.68.68 0 0 0 .287.157 5.4 5.4 0 0 0 .47.104 4.19 4.19 0 0 1 .594.143.86.86 0 0 1 .379.242c.104.111.157.267.157.47 0 .267-.111.483-.339.646-.228.157-.535.235-.94.235a2.24 2.24 0 0 1-.737-.111zm5.141-2.832c.235.131.418.313.555.555a1.68 1.68 0 0 1 .202.816c0 .307-.065.581-.202.822a1.4 1.4 0 0 1-.548.555c-.235.131-.496.196-.789.196a1.46 1.46 0 0 1-.679-.157 1.28 1.28 0 0 1-.496-.457v1.723h-.424v-4.228h.398v.613c.124-.202.294-.359.496-.47a1.43 1.43 0 0 1 .698-.163c.294 0 .555.065.79.196zm-.228 2.421a1.03 1.03 0 0 0 .411-.424c.098-.183.15-.392.15-.626s-.052-.444-.15-.626a1.03 1.03 0 0 0-.411-.424c-.176-.104-.372-.15-.587-.15a1.15 1.15 0 0 0-.587.15 1.07 1.07 0 0 0-.411.424c-.098.183-.15.392-.15.626s.052.444.15.626a1.03 1.03 0 0 0 .411.424 1.19 1.19 0 0 0 .587.15c.215 0 .411-.046.587-.15z"/><use xlink:href="#B"/><path d="M73.093 41.049c-.078.072-.176.124-.294.163s-.235.059-.359.059c-.287 0-.516-.078-.672-.235s-.235-.379-.235-.666v-1.873h-.555v-.352h.555v-.679h.418v.679h.94v.352h-.94v1.846c0 .183.046.326.137.418.091.098.222.144.398.144a.79.79 0 0 0 .248-.039c.078-.026.15-.065.209-.117l.15.3zm2.766-2.623c.215.202.326.502.326.894v1.912h-.398v-.483a.96.96 0 0 1-.411.378c-.183.091-.398.137-.652.137-.346 0-.62-.085-.822-.248s-.307-.378-.307-.652c0-.261.098-.476.287-.633.189-.163.489-.242.907-.242h.979V39.3c0-.267-.072-.47-.222-.607s-.365-.209-.653-.209a1.61 1.61 0 0 0-.561.098c-.183.065-.333.157-.463.267l-.189-.313c.157-.13.346-.235.561-.307a2.22 2.22 0 0 1 .692-.111c.405.007.711.104.927.307zm-.47 2.349c.17-.111.294-.261.378-.47v-.502h-.972c-.528 0-.79.183-.79.555 0 .183.065.32.209.424.137.104.326.157.574.157a1.13 1.13 0 0 0 .6-.163zm1.926-3.896h.418v4.359h-.418v-4.359z"/><use xlink:href="#B" x="9.004"/><path d="M82.104 41.049c-.078.072-.176.124-.294.163s-.235.059-.359.059c-.287 0-.516-.078-.672-.235s-.235-.379-.235-.666v-1.873h-.555v-.352h.555v-.679h.418v.679h.94v.352h-.94v1.846c0 .183.046.326.137.418.091.098.222.144.398.144a.79.79 0 0 0 .248-.039.6.6 0 0 0 .209-.117l.15.3zm3.295-2.904l-1.546 3.458c-.124.287-.267.496-.437.62-.163.124-.359.183-.594.183a1.25 1.25 0 0 1-.418-.072c-.13-.046-.242-.117-.333-.209l.196-.313a.77.77 0 0 0 .561.235c.144 0 .261-.039.359-.117s.196-.209.281-.398l.137-.3-1.383-3.086h.437l1.161 2.623 1.161-2.623h.418zm5.429 1.318c.15.176.222.398.222.672 0 .352-.13.626-.391.816s-.646.287-1.155.287h-1.892v-4.111h1.775c.457 0 .816.091 1.064.274.254.183.378.444.378.783a1 1 0 0 1-.17.581c-.111.163-.267.274-.463.352.274.059.483.176.633.346zm-2.786-1.977v1.494h1.311c.333 0 .587-.065.77-.189.183-.13.267-.313.267-.555s-.091-.431-.267-.555-.437-.189-.77-.189h-1.311v-.007zm2.29 3.204c.189-.124.281-.32.281-.587 0-.515-.372-.77-1.116-.77h-1.449v1.546h1.449c.365 0 .646-.065.835-.189zm4.307-.868h-2.584c.026.32.15.581.372.776s.502.294.848.294c.189 0 .365-.033.528-.104a1.12 1.12 0 0 0 .418-.3l.235.268c-.137.163-.307.287-.515.378s-.431.131-.679.131c-.32 0-.6-.065-.842-.202a1.48 1.48 0 0 1-.574-.561 1.6 1.6 0 0 1-.202-.809 1.65 1.65 0 0 1 .196-.809 1.39 1.39 0 0 1 .542-.555 1.54 1.54 0 0 1 .77-.202 1.46 1.46 0 0 1 .77.202 1.41 1.41 0 0 1 .535.555c.13.235.196.509.196.816l-.013.124zm-2.238-1.057a1.14 1.14 0 0 0-.346.744h2.192a1.11 1.11 0 0 0-.346-.744 1.07 1.07 0 0 0-.757-.287 1.05 1.05 0 0 0-.744.287zm5.957-.62v2.714c0 .522-.13.913-.385 1.168s-.646.378-1.162.378a2.6 2.6 0 0 1-.816-.124c-.255-.085-.463-.202-.626-.352l.209-.32c.15.13.326.235.542.313.215.072.437.111.672.111.392 0 .679-.091.861-.274s.274-.463.274-.848v-.392c-.13.196-.3.346-.509.444-.209.104-.444.15-.698.15a1.68 1.68 0 0 1-.79-.189 1.37 1.37 0 0 1-.555-.535 1.54 1.54 0 0 1-.202-.776c0-.287.065-.548.202-.777a1.39 1.39 0 0 1 .555-.528 1.66 1.66 0 0 1 .79-.189 1.6 1.6 0 0 1 .711.157 1.32 1.32 0 0 1 .509.457v-.594h.418v.007zm-.979 2.46a1 1 0 0 0 .418-.404c.098-.17.15-.365.15-.587a1.17 1.17 0 0 0-.15-.587 1.06 1.06 0 0 0-.418-.398 1.23 1.23 0 0 0-.607-.144 1.22 1.22 0 0 0-.6.144 1.02 1.02 0 0 0-.418.398c-.098.17-.15.365-.15.587a1.15 1.15 0 0 0 .15.587c.098.169.241.307.418.404a1.23 1.23 0 0 0 .6.144c.228 0 .431-.046.607-.144zm2.14-3.223c-.059-.059-.085-.13-.085-.209s.026-.15.085-.202.13-.091.215-.091a.29.29 0 0 1 .215.085c.058.059.084.124.084.202a.29.29 0 0 1-.3.3.29.29 0 0 1-.215-.085zm.007.763h.418v3.086h-.418v-3.086zm4.078.313c.228.228.345.555.345.985v1.794h-.417v-1.749c0-.32-.079-.568-.242-.737s-.391-.255-.685-.255c-.333 0-.594.098-.789.294s-.294.47-.294.822v1.618h-.418v-3.086h.399v.568c.11-.189.274-.333.469-.437.203-.104.437-.157.705-.157.392.007.698.117.927.339zm1.585 2.695c-.228-.072-.411-.163-.535-.274l.19-.326c.13.104.293.183.489.248a1.92 1.92 0 0 0 .613.098c.281 0 .49-.046.627-.13a.42.42 0 0 0 .202-.372c0-.111-.039-.202-.111-.267s-.17-.111-.281-.15-.267-.065-.45-.098a6.1 6.1 0 0 1-.607-.144.89.89 0 0 1-.391-.248c-.111-.117-.163-.281-.163-.489a.76.76 0 0 1 .326-.633c.215-.163.515-.248.9-.248.203 0 .398.026.601.078s.365.124.496.209l-.183.333c-.255-.176-.555-.268-.907-.268-.268 0-.47.046-.6.144s-.203.215-.203.372a.36.36 0 0 0 .118.281.68.68 0 0 0 .287.157 5.4 5.4 0 0 0 .47.104 4.31 4.31 0 0 1 .594.143.86.86 0 0 1 .378.242c.104.111.157.267.157.47 0 .267-.111.483-.34.646-.228.157-.535.235-.939.235-.268 0-.509-.033-.738-.111zM7.811 8.77h2.773v19.412H7.811V8.77zm25.29 0v19.412h-2.277l-11.647-14.48v14.479h-2.773V8.77h2.277l11.647 14.479V8.77h2.773zm7.256 18.955c-1.357-.45-2.427-1.037-3.204-1.762l1.024-2.166c.737.665 1.69 1.207 2.845 1.625a10.4 10.4 0 0 0 3.563.626c1.612 0 2.812-.274 3.608-.816.796-.548 1.194-1.272 1.194-2.179 0-.666-.215-1.207-.653-1.625s-.972-.737-1.612-.959-1.54-.47-2.701-.75c-1.462-.352-2.636-.705-3.537-1.057s-1.664-.894-2.303-1.625-.959-1.716-.959-2.956c0-1.037.274-1.97.816-2.799.542-.835 1.37-1.501 2.48-1.997 1.109-.502 2.486-.75 4.13-.75a13.18 13.18 0 0 1 3.387.444c1.109.294 2.062.724 2.858 1.279l-.913 2.218a10.17 10.17 0 0 0-2.61-1.181 9.79 9.79 0 0 0-2.721-.405c-1.572 0-2.747.287-3.536.861s-1.181 1.312-1.181 2.219c0 .665.222 1.207.665 1.625s.992.737 1.651.972c.659.228 1.546.476 2.675.737 1.462.352 2.636.705 3.523 1.057a5.92 5.92 0 0 1 2.29 1.612c.639.718.959 1.69.959 2.91 0 1.018-.274 1.944-.835 2.786-.555.842-1.396 1.507-2.525 1.997s-2.512.737-4.163.737a13.14 13.14 0 0 1-4.215-.679zM56.148 8.77h2.773v19.412h-2.773V8.77zm22.048 9.598h2.662v7.569c-.959.796-2.081 1.403-3.354 1.834a12.61 12.61 0 0 1-3.993.64c-1.957 0-3.726-.431-5.298-1.292s-2.806-2.042-3.7-3.55c-.9-1.507-1.344-3.204-1.344-5.09s.45-3.589 1.344-5.103 2.134-2.701 3.719-3.55c1.579-.848 3.36-1.279 5.337-1.279 1.553 0 2.962.254 4.228.763a8.65 8.65 0 0 1 3.23 2.232l-1.723 1.723c-1.553-1.501-3.432-2.245-5.631-2.245-1.481 0-2.806.32-3.98.959a7.04 7.04 0 0 0-2.76 2.662c-.666 1.135-.998 2.421-.998 3.843 0 1.403.333 2.675.998 3.811a7.11 7.11 0 0 0 2.76 2.675c1.175.646 2.493.972 3.954.972 1.736 0 3.256-.418 4.548-1.246v-6.329zm24.657-9.598v19.412h-2.277l-11.647-14.48v14.479h-2.773V8.77h2.277l11.647 14.479V8.77h2.773zm5.827 0h2.773v19.412h-2.773V8.77z"/></g><path d="M131.642 28.182l-7.034-16.025-7.06 16.025h-2.819l8.593-19.542h2.767l8.6 19.542h-3.047z" fill="#d9ac2e"/><path d="M2.134 3.615h135.674M2.134 32.945h135.674" stroke="#d9ac2e" stroke-width="1.5" stroke-miterlimit="10"/><defs ><path id="B" d="M69.883 37.382c-.059-.059-.085-.13-.085-.209s.026-.15.085-.202.13-.091.215-.091a.29.29 0 0 1 .215.085.27.27 0 0 1 .085.202.29.29 0 0 1-.3.3.29.29 0 0 1-.215-.085zm.007.763h.418v3.086h-.418v-3.086z"/></defs></svg>