<svg xmlns="http://www.w3.org/2000/svg" width="28" height="29" fill="none" xmlns:v="https://vecta.io/nano"><path d="M25.667 20.467v3.5c.001.325-.065.647-.195.944s-.321.565-.561.785-.522.387-.83.491-.634.143-.958.113a23.09 23.09 0 0 1-10.068-3.582 22.75 22.75 0 0 1-7-7A23.09 23.09 0 0 1 2.473 5.604c-.029-.323.009-.648.113-.955s.27-.589.488-.828.484-.43.781-.561.617-.199.941-.199h3.5c.566-.006 1.115.195 1.544.564s.71.882.789 1.443c.148 1.12.422 2.22.817 3.278.157.418.191.871.098 1.308s-.309.837-.623 1.154l-1.482 1.482c1.661 2.921 4.079 5.339 7 7l1.482-1.482c.317-.314.718-.53 1.154-.623s.89-.059 1.308.098c1.059.395 2.158.669 3.278.817.567.08 1.084.366 1.454.802s.567.994.552 1.566z" stroke="#fff" stroke-width="2" stroke-linejoin="round"/></svg>